<svg width="1651" height="118" viewBox="0 0 1651 118" fill="none" xmlns="http://www.w3.org/2000/svg">
<g filter="url(#filter0_d)">
<path d="M16.42 55.2L35.67 6.24999L24.67 2.95L4.32 55.2L24.67 107.45L35.67 104.15L16.42 55.2ZM36.33 55.2L55.58 6.24999L44.58 2.95L24.23 55.2L44.58 107.45L55.58 104.15L36.33 55.2ZM78.35 45.41V62.9H180.87V45.41H78.35ZM223.33 3.17C218.6 18.46 210.46 33.75 201.66 43.54C204.08 47.72 207.93 57.18 209.03 61.14C210.9 59.05 212.66 56.85 214.42 54.43V107.56H229.6V28.47C232.79 21.65 235.65 14.5 237.96 7.68L223.33 3.17ZM274.7 72.47H267.66V64.11H274.7V72.47ZM288.34 45.19V33.86H277.12V23.3H264.91V33.86H254.57V45.19H264.91V53.33H256.44V83.14H286.58V53.33H277.12V45.19H288.34ZM252.7 87.21V21.76H290.1V87.21H252.7ZM238.18 8.01V107.34H252.7V100.96H290.1V106.35H305.28V8.01H238.18ZM403.95 68.51V73.57H361.6V68.51H403.95ZM361.6 90.95V85.45H403.95V90.95H361.6ZM345.54 107.56H361.6V104.04H403.95V107.56H420.78V55.42H345.54V107.56ZM397.24 25.28C396.47 28.69 395.26 32.76 394.05 36.06H372.49C371.61 32.76 370.07 28.69 368.2 25.28H397.24ZM411.43 36.06L415.61 27.26L405.82 25.28H427.49V11.2H392.73C391.74 8.01 390.2 4.37999 388.44 1.52L371.61 3.94C372.71 6.03 373.7 8.67 374.58 11.2H338.83V25.28H361.6L351.59 27.15C352.91 29.79 354.12 33.09 355 36.06H332.78V50.25H432.33V36.06H411.43ZM510.1 48.71C509.55 67.19 508.89 74.01 507.68 75.77C506.91 76.98 506.14 77.31 504.93 77.31C503.5 77.31 501.74 77.31 499.43 76.98C503.5 68.07 505.15 57.73 505.81 48.71H510.1ZM493.71 37.6C493.71 48.71 492.83 66.2 484.25 77.64C487.11 79.51 491.62 83.91 493.6 86.55C495.91 83.8 497.78 80.61 499.32 77.31C501.08 80.72 502.29 85.89 502.51 89.63C506.47 89.63 509.99 89.52 512.41 89.08C515.16 88.42 517.25 87.43 519.34 84.46C521.87 80.83 522.75 69.61 523.52 41.12C523.52 39.58 523.63 35.95 523.63 35.95H506.14V29.79H522.97V28.69C524.4 29.79 525.83 31 527.26 32.1V42.55H540.02C538.59 44.09 537.16 45.52 535.73 46.73V52.23H524.95V64.66H535.73V74.34C535.73 75.33 535.4 75.66 534.08 75.66C532.87 75.66 528.8 75.66 525.17 75.55C527.04 79.18 529.02 84.79 529.46 88.64C535.62 88.64 540.46 88.42 544.31 86.33C548.38 84.24 549.15 80.5 549.15 74.56V64.66H560.7V52.23H549.15V49.48C553.33 45.52 557.4 41.01 560.7 36.83L552.45 30.45L549.92 31.22H533.42C534.41 29.68 535.29 28.03 536.28 26.27H561.03V13.29H542.33C543.32 10.87 544.31 8.33999 545.08 6.03L531.99 2.28999C529.9 9.22 526.6 16.59 522.97 22.42V16.81H513.73L514.28 16.7C513.62 12.85 511.97 7.13 510.54 2.72999L496.68 5.04C497.67 8.56 498.77 13.18 499.54 16.81H485.79V29.79H493.71V37.6ZM484.8 19.78C482.05 15.27 476.77 8.33999 472.26 3.17L460.05 9.77C464.34 15.27 469.62 22.97 472.04 27.7L484.8 19.78ZM481.5 54.76L479.08 55.09H475.78C481.06 47.72 486.89 37.93 490.63 31.99L480.95 28.03L479.08 28.8H458.4V41.34H470.28C467.09 46.4 463.79 51.13 462.25 52.78C460.16 54.98 458.4 55.97 456.42 56.41C457.85 59.16 460.6 65.76 461.37 69.06C462.36 68.07 465.77 67.3 468.3 67.3H472.7C469.73 81.05 464.01 91.28 455.54 97.33C458.51 99.42 463.79 104.81 465.77 107.89C470.61 104.15 474.79 98.98 478.31 92.38C486.56 103.49 498.88 105.58 518.24 105.58C531.55 105.58 545.74 105.25 557.84 104.48C558.61 100.19 560.7 93.04 562.9 89.85C549.7 91.17 530.45 91.94 518.57 91.94C501.3 91.83 489.64 90.4 483.7 78.52C485.57 72.25 487 65.21 487.99 57.4L481.5 54.76ZM617.46 57.18C615.92 54.65 609.32 44.31 606.9 41.23V37.82H613.72V23.08H606.9V2.95H593.37V23.08H584.68V37.82H592.71C590.4 49.04 586.33 61.8 581.49 69.06C583.47 73.24 586.22 80.39 587.43 84.9C589.63 80.94 591.61 75.88 593.37 70.16V107.45H606.9V58.06C608.44 61.58 609.87 65.1 610.75 67.63L617.46 57.18ZM667.84 71.7C666.74 73.9 665.31 76.1 663.77 78.08C663.11 76.1 662.45 74.01 661.79 71.7H667.84ZM662.78 56.3C663.88 57.29 665.2 58.5 666.52 59.71H659.26C658.38 54.98 657.72 49.81 657.06 44.2C658.27 47.17 659.81 52.12 660.36 54.21C661.57 53.55 663.11 53 667.73 52.12L662.78 56.3ZM674.77 41.67L671.14 42.11C672.02 41.01 672.9 39.8 673.78 38.59L674.77 41.67ZM629.45 43.54C630.44 42.33 631.43 41.01 632.42 39.69C632.64 40.79 632.97 41.89 633.19 43.1L629.45 43.54ZM673.78 71.7H685.55V59.71H676.97L679.72 57.29C678.07 55.64 675.21 53.33 672.79 51.24L676.97 50.58C677.41 52.12 677.63 53.55 677.85 54.76L687.2 51.68C686.32 47.72 684.34 40.9 682.47 35.95L674 38.26C678.18 32.54 682.14 25.94 685.22 19.45L674 15.82C673.23 17.91 672.35 20.11 671.47 22.2L668.39 22.42C671.36 17.47 674.44 11.42 676.53 5.80999L665.2 2.95C663.66 10.1 660.25 17.36 659.26 19.23C658.16 21.21 656.84 22.64 655.52 22.97C656.73 25.94 658.49 31.11 659.15 33.42C660.25 32.87 662.01 32.32 666.63 31.77C664.76 34.96 663.22 37.49 662.34 38.59C660.47 41.23 658.82 42.99 656.95 43.65C655.74 31.77 654.97 18.35 654.75 3.82999H641.66C641.88 9.55 642.1 15.05 642.32 20.33L632.53 17.14C631.76 19.23 630.88 21.43 630 23.52L626.92 23.74C630.11 18.57 633.41 12.19 635.5 6.24999L624.06 3.39C622.52 10.87 619 18.46 617.9 20.44C616.8 22.53 615.37 23.85 614.05 24.29C615.37 27.15 617.02 32.43 617.68 34.74C618.78 34.19 620.54 33.64 625.05 33.09C623.18 36.28 621.64 38.81 620.76 39.91C618.89 42.66 617.13 44.42 615.37 44.97C616.47 47.83 618.34 53.33 618.89 55.53C620.43 54.65 623.18 53.88 634.84 52.12C635.06 53.33 635.17 54.43 635.28 55.42L644.85 52.56C644.3 48.6 642.87 42 641.33 36.94L632.75 39.14C636.27 34.19 639.68 28.8 642.43 23.3C643.2 36.83 644.41 49.04 646.06 59.71H616.14V71.7H621.64C620.87 80.17 617.79 90.29 606.9 98.32C609.76 99.97 615.48 104.81 617.57 107.34C624.72 101.62 629.23 94.47 631.87 87.1C634.51 89.52 637.04 92.05 638.58 93.81L648.04 84.35C645.07 81.38 639.02 76.65 634.84 73.24L635.06 71.7H648.37C649.8 77.86 651.45 83.36 653.54 87.98C648.26 91.83 642.21 94.91 635.39 97.11C638.03 99.64 641.88 104.59 643.53 107.34C649.47 105.14 654.97 102.39 660.03 98.98C664.21 103.93 669.27 106.79 675.43 107.34C680.38 107.67 685.55 104.04 688.74 89.19C686.32 87.76 681.15 83.91 678.84 80.83C678.07 88.42 676.97 92.27 674.99 92.05C673.56 91.83 672.13 91.17 670.81 90.07C675.21 85.56 678.95 80.5 681.92 74.78L673.78 71.7ZM811.39 44.31C805.45 34.96 792.14 21.32 782.46 11.75L770.03 20.11C773.55 23.74 777.29 27.81 781.03 32.1L741.98 33.09C749.79 25.39 757.49 16.37 763.76 7.24L747.59 0.309993C740.66 13.29 729.11 26.38 725.37 29.79C721.74 33.2 719.32 35.18 716.02 35.95C717.89 40.24 720.53 48.16 721.3 51.24C727.9 49.04 736.59 48.82 792.69 46.4C794.78 49.15 796.54 51.9 797.86 54.21L811.39 44.31ZM783.12 72.8V86.55H740V72.8H783.12ZM723.61 107.34H740V101.95H783.12V107.34H800.39V57.51H723.61V107.34ZM900.6 79.18C897.63 81.38 894.22 83.25 890.37 84.9C885.42 83.25 880.8 81.38 876.62 79.18H900.6ZM858.36 64.66C862.65 61.03 865.73 55.97 867.93 50.91C868.04 57.51 869.47 61.14 874.2 62.79C871.23 65.54 867.71 68.07 863.75 70.38C861.77 68.62 860.01 66.75 858.36 64.66ZM855.94 40.46H879.7L877.61 42.66C878.82 43.21 880.14 43.76 881.35 44.42H867.93V47.5L857.15 42.88C856.82 43.76 856.38 44.64 855.94 45.52V40.46ZM878.16 21.43C879.48 23.52 880.8 26.16 881.68 28.47H867.93L872.66 26.49C872 24.51 870.57 21.98 868.92 19.78C874.31 19.56 879.7 19.23 885.09 18.9L878.16 21.43ZM889.6 28.47L895.76 26.16C895.21 23.85 893.67 20.88 891.91 18.35C898.18 17.91 904.34 17.25 910.28 16.59C908.63 20.55 906.32 25.06 904.23 28.47H889.6ZM920.51 46.18C918.64 44.64 916.66 43.1 914.79 41.78L904.23 49.37C905.55 50.36 906.87 51.57 908.19 52.78C904.89 51.9 901.04 50.58 898.95 49.26C898.51 52.56 897.85 53.22 895.43 53.22H886.52C883.22 53.22 882.56 53 882.56 50.36V45.08C886.74 47.28 890.7 49.92 893.01 52.01L900.93 43.32C899.83 42.44 898.4 41.45 896.86 40.46H920.51V46.18ZM914.79 67.41L912.26 67.85H887.84C889.05 66.64 890.26 65.32 891.25 64H897.19C905.44 64 909.07 62.02 910.61 54.98C915.01 59.05 918.97 63.56 921.06 67.08L932.39 58.61C930.96 56.3 928.65 53.77 926.12 51.24H936.35V28.47H919.85C922.16 25.39 924.69 21.87 927.22 18.24L918.2 15.49C922.82 14.83 927.22 14.06 931.29 13.18L920.73 2.72999C902.25 6.47 870.9 8.44999 843.51 8.88999C844.83 11.75 846.26 17.03 846.59 20.33C850.99 20.33 855.5 20.22 860.12 20L854.4 22.42C855.72 24.18 856.93 26.38 857.92 28.47H840.87V49.26H853.74C851.76 52.23 849.34 54.87 846.7 56.85L856.38 64.11L845.05 68.62C846.92 71.26 849.01 73.79 851.21 76.1C848.02 77.31 844.72 78.41 841.42 79.29C844.5 81.71 849.67 86.99 852.09 89.74C855.28 88.53 858.47 87.21 861.66 85.78C864.19 87.65 866.83 89.41 869.69 91.06C859.79 93.04 848.79 94.14 837.24 94.69C840.1 97.77 844.06 104.26 845.38 107.89C860.89 106.46 875.63 104.04 888.61 99.64C901.04 103.82 915.34 106.35 931.73 107.56C933.6 103.27 937.45 96.45 940.64 92.82C929.31 92.27 918.86 91.28 909.4 89.52C915.67 85.34 920.95 80.17 924.91 74.01L914.79 67.41ZM980.79 58.06C982 52.34 983.1 46.18 984.2 39.8L990.91 39.36C990.58 46.62 989.48 54.98 986.73 63.34L980.79 58.06ZM1011.48 37.93L1011.59 23.63L1005.98 23.96V18.46H991.13V24.73L986.4 24.95C987.28 17.8 988.05 10.65 988.6 3.94L972.76 3.17C972.43 10.32 971.77 18.02 970.78 25.72L962.42 26.05L963.85 41.12L968.69 40.79C967.37 49.04 965.72 56.63 964.18 62.79C968.91 67.41 974.41 72.69 979.91 77.97C975.73 84.68 970.12 91.06 962.31 96.45C965.83 98.98 971.22 104.37 973.53 107.78C981.01 102.28 986.84 96.01 991.24 89.3C995.42 93.7 999.16 97.77 1001.8 101.18L1012.36 87.87C1009.17 84.02 1004.33 79.4 999.05 74.45C1004 61.91 1005.54 49.04 1005.87 38.37L1011.48 37.93ZM1067.25 47.5H1046.46V40.68C1054.27 33.2 1061.2 23.85 1066.48 15.82L1055.81 8.12L1052.07 8.88999H1011.81V23.3H1041.84C1038.43 28.8 1034.14 34.41 1029.85 38.37V47.5H1007.74V62.68H1029.85V90.4C1029.85 92.05 1029.19 92.49 1027.32 92.49C1025.56 92.49 1018.85 92.49 1013.9 92.27C1016.1 96.45 1018.41 103.05 1019.18 107.56C1027.87 107.56 1034.58 107.23 1039.75 104.92C1044.92 102.5 1046.46 98.54 1046.46 90.73V62.68H1067.25V47.5ZM1141.61 27.48H1155.69C1152.83 30.12 1149.86 32.76 1146.67 35.18H1141.61V27.48ZM1162.4 74.34H1128.3V69.39H1162.4V74.34ZM1128.3 91.17V86.22H1162.4V91.17H1128.3ZM1191.22 49.15V35.18H1168.89C1176.04 28.36 1182.42 20.88 1188.03 12.85L1174.28 5.80999C1171.09 10.54 1167.57 15.16 1163.61 19.45V13.73H1141.61V2.95H1125.77V13.73H1101.13V27.48H1125.77V35.18H1091.67V49.15H1125.77C1114 55.86 1101.13 61.36 1087.71 65.43C1090.57 68.62 1095.3 75.22 1097.17 78.63C1102.23 76.76 1107.4 74.78 1112.35 72.58V107.56H1128.3V104.48H1162.4V107.12H1179.12V56.41H1142.16C1145.68 54.1 1149.2 51.68 1152.5 49.15H1191.22ZM1234.67 82.26V63.34H1249.08V82.26H1234.67ZM1249.08 49.59H1234.67V34.74H1249.08V49.59ZM1287.8 19.78C1289.34 15.49 1290.77 11.2 1291.98 6.90999L1276.58 3.27999C1273.72 14.72 1268.99 26.6 1263.49 35.51V20.88H1247.21C1248.97 16.26 1250.84 10.76 1252.71 5.36999L1235.22 2.95C1234.89 8.33999 1233.9 15.27 1232.8 20.88H1220.26V104.04H1234.67V96.23H1263.49V43.87C1266.79 46.07 1270.53 48.93 1272.51 50.69C1275.7 46.18 1278.89 40.57 1281.86 34.3H1302.76C1301.88 70.6 1300.56 86.77 1297.37 90.18C1295.94 91.72 1294.73 92.16 1292.53 92.16C1289.56 92.16 1282.96 92.16 1275.92 91.5C1278.78 95.9 1280.98 102.72 1281.2 107.01C1287.8 107.23 1294.62 107.34 1299.02 106.57C1303.86 105.69 1307.27 104.37 1310.68 99.53C1315.3 93.48 1316.4 75.66 1317.72 26.71C1317.83 24.84 1317.83 19.78 1317.83 19.78H1287.8ZM1298.91 70.71C1295.61 64.22 1288.46 53.77 1283.51 46.29L1270.97 53.33C1275.92 61.47 1282.52 72.25 1285.38 78.96L1298.91 70.71ZM1416.61 76.54V87.87H1374.26V76.54H1416.61ZM1357.76 107.45H1374.26V102.61H1416.61V107.01H1433.88V61.91H1357.76V107.45ZM1389 30.89V40.9H1359.41C1361.83 38.04 1364.25 34.63 1366.67 30.89H1389ZM1406.05 40.9V30.89H1437.29V16.37H1406.05V2.95H1389V16.37H1374.48C1375.91 13.18 1377.12 9.99 1378.22 6.79999L1362.16 2.83999C1358.53 14.5 1351.71 26.49 1343.79 33.53C1347.2 35.18 1353.14 38.37 1356.88 40.9H1345.77V55.75H1443.34V40.9H1406.05ZM1494.38 84.35V66.75H1547.07V84.35H1494.38ZM1547.07 34.3V50.91H1494.38V34.3H1547.07ZM1525.18 18.13C1527.16 14.17 1529.25 9.66 1531.23 5.04L1510 2.51C1509.34 7.24 1507.91 12.96 1506.26 18.13H1478.21V107.23H1494.38V100.52H1547.07V107.23H1564.12V18.13H1525.18ZM1625.83 107.45L1646.18 55.2L1625.83 2.95L1614.83 6.24999L1634.08 55.2L1614.83 104.15L1625.83 107.45ZM1605.92 107.45L1626.27 55.2L1605.92 2.95L1594.92 6.24999L1614.17 55.2L1594.92 104.15L1605.92 107.45Z" fill="white"/>
</g>
<defs>
<filter id="filter0_d" x="0.320007" y="0.309998" width="1649.86" height="117.58" filterUnits="userSpaceOnUse" color-interpolation-filters="sRGB">
<feFlood flood-opacity="0" result="BackgroundImageFix"/>
<feColorMatrix in="SourceAlpha" type="matrix" values="0 0 0 0 0 0 0 0 0 0 0 0 0 0 0 0 0 0 127 0"/>
<feOffset dy="6"/>
<feGaussianBlur stdDeviation="2"/>
<feColorMatrix type="matrix" values="0 0 0 0 0 0 0 0 0 0 0 0 0 0 0 0 0 0 1 0"/>
<feBlend mode="normal" in2="BackgroundImageFix" result="effect1_dropShadow"/>
<feBlend mode="normal" in="SourceGraphic" in2="effect1_dropShadow" result="shape"/>
</filter>
</defs>
</svg>
