<svg width="192" height="192" viewBox="0 0 192 192" fill="none" xmlns="http://www.w3.org/2000/svg">
<path fill-rule="evenodd" clip-rule="evenodd" d="M39.878 20C28.923 20 20.818 29.59 21.18 39.988C21.529 49.978 21.076 62.918 17.819 73.468C14.55 84.052 9.026 90.756 0 91.615V101.334C9.026 102.194 14.55 108.897 17.819 119.481C21.076 130.032 21.529 142.972 21.18 152.961C20.818 163.36 28.923 172.949 39.878 172.949H152.136C163.091 172.949 171.196 163.36 170.833 152.961C170.485 142.972 170.937 130.032 174.195 119.481C177.463 108.897 182.974 102.194 192 101.334V91.615C182.974 90.755 177.463 84.052 174.195 73.468C170.937 62.918 170.485 49.978 170.833 39.988C171.196 29.589 163.091 20 152.136 20H39.878ZM128.543 114.15C128.543 128.47 117.863 137.152 100.139 137.152H68.713C68.1826 137.152 67.6739 136.941 67.2988 136.566C66.9237 136.191 66.713 135.682 66.713 135.152V57.797C66.713 57.2666 66.9237 56.7579 67.2988 56.3828C67.6739 56.0077 68.1826 55.797 68.713 55.797H99.966C114.745 55.797 124.444 63.803 124.444 76.093C124.444 84.719 117.92 92.443 109.607 93.796V94.247C120.922 95.487 128.543 103.325 128.543 114.15V114.15ZM96.848 66.114H79.644V90.414H94.135C105.335 90.414 111.512 85.904 111.512 77.841C111.512 70.286 106.201 66.114 96.848 66.114ZM79.644 100.055V126.835H97.484C109.145 126.835 115.322 122.155 115.322 113.36C115.322 104.565 108.972 100.055 96.732 100.055H79.645H79.644Z" fill="#7952B3"/>
</svg>
