<?xml version="1.0" standalone="no"?>
<!DOCTYPE svg PUBLIC "-//W3C//DTD SVG 20010904//EN"
 "http://www.w3.org/TR/2001/REC-SVG-20010904/DTD/svg10.dtd">
<svg version="1.0" xmlns="http://www.w3.org/2000/svg"
 width="1200.000000pt" height="1200.000000pt" viewBox="0 0 1200.000000 1200.000000"
 preserveAspectRatio="xMidYMid meet">
<metadata>
Created by potrace 1.11, written by Peter Selinger 2001-2013
</metadata>
<g transform="translate(0.000000,1200.000000) scale(0.100000,-0.100000)"
fill="#000000" stroke="none">
<path d="M6848 11285 c-2 -2 -30 -6 -63 -9 -522 -54 -1096 -293 -1605 -669
-159 -117 -262 -210 -520 -466 -137 -135 -558 -554 -936 -929 -379 -376 -708
-707 -731 -735 -207 -253 -365 -489 -488 -732 -146 -286 -223 -499 -280 -775
-24 -114 -28 -140 -44 -275 -20 -171 -6 -499 29 -675 58 -297 184 -615 336
-853 24 -37 44 -70 44 -73 0 -3 13 -22 28 -42 16 -20 60 -80 100 -132 73 -98
85 -113 177 -216 54 -61 588 -594 1625 -1624 386 -384 2360 -2343 2384 -2367
6 -7 2014 1992 2102 2093 132 150 290 374 388 546 226 401 356 790 393 1186
13 143 7 431 -11 542 -3 14 -7 43 -11 65 -38 255 -151 570 -297 825 -103 180
-264 403 -383 531 l-37 40 59 75 c278 357 469 702 592 1070 67 201 106 376
130 596 9 77 7 467 -3 507 -3 13 -8 49 -12 80 -3 31 -8 58 -9 61 -2 3 -6 24
-10 48 -5 34 -29 126 -79 302 -18 63 -99 248 -157 359 -143 273 -327 518 -579
772 -308 310 -622 534 -940 669 -41 17 -88 37 -105 45 -118 51 -401 126 -540
141 -27 3 -61 8 -75 11 -26 6 -466 13 -472 8z m382 -409 c155 -13 417 -72 515
-115 11 -5 56 -24 100 -42 184 -77 397 -207 577 -352 85 -68 97 -81 86 -95 -7
-8 -88 -90 -180 -181 -91 -91 -680 -677 -1308 -1301 -628 -624 -1373 -1364
-1655 -1645 -507 -505 -617 -624 -759 -828 -122 -175 -250 -400 -334 -587 -65
-144 -149 -386 -167 -480 -2 -8 -8 -35 -15 -59 -66 -246 -84 -641 -41 -919 12
-79 25 -151 28 -160 3 -9 4 -15 0 -12 -41 35 -823 820 -883 885 -341 379 -544
794 -602 1235 -15 118 -8 455 13 560 3 14 10 51 15 82 72 396 307 875 617
1263 87 109 181 204 1363 1378 647 643 627 624 770 734 410 314 857 526 1284
609 51 10 236 32 281 33 27 1 50 3 52 4 4 4 169 -1 243 -7z m1628 -929 c201
-255 261 -346 358 -539 57 -112 133 -310 148 -383 2 -5 10 -44 19 -85 37 -162
46 -260 42 -455 -4 -207 -5 -214 -41 -390 -84 -410 -282 -817 -592 -1215 -48
-62 -415 -435 -1056 -1075 -541 -539 -996 -996 -1012 -1015 -208 -246 -402
-554 -547 -870 -29 -62 -103 -263 -125 -335 -84 -285 -113 -471 -116 -748 -2
-192 30 -480 65 -577 4 -14 11 -37 13 -52 3 -15 8 -33 12 -40 4 -7 4 -11 1 -8
-18 15 -796 793 -890 890 -414 429 -645 885 -696 1375 -9 84 -7 354 3 420 3
16 8 52 11 80 11 81 63 293 96 390 108 314 250 578 472 875 110 148 20 57
2440 2463 1405 1396 1345 1337 1354 1337 4 -1 23 -20 41 -43z m-57 -3744 c103
-112 259 -336 338 -485 113 -211 204 -478 226 -663 4 -27 9 -59 12 -70 10 -32
11 -345 2 -410 -4 -33 -10 -81 -13 -106 -30 -267 -175 -659 -351 -949 -177
-292 -278 -413 -690 -823 -192 -192 -578 -575 -856 -852 l-506 -504 -24 27
c-207 235 -421 589 -480 792 -7 25 -16 50 -19 55 -13 18 -49 167 -71 290 -29
164 -31 431 -5 610 36 246 120 504 245 755 79 157 101 195 198 343 164 248
207 295 1096 1180 468 466 854 847 858 847 3 0 21 -17 40 -37z"/>
</g>
</svg>
