<svg width="6000" height="4000" viewBox="0 0 6000 4000" fill="none" xmlns="http://www.w3.org/2000/svg">
<rect width="6000" height="4000" fill="#E5E5E5"/>
<path d="M3341.33 2000C3341.33 1952.94 3303.06 1914.67 3256 1914.67H3213.33V1786.67C3213.33 1669.03 3117.63 1573.33 3000 1573.33C2882.37 1573.33 2786.67 1669.03 2786.67 1786.67V1914.67H2744C2696.94 1914.67 2658.67 1952.94 2658.67 2000V2341.33C2658.67 2388.39 2696.94 2426.67 2744 2426.67H3256C3303.06 2426.67 3341.33 2388.39 3341.33 2341.33V2000ZM2872 1786.67C2872 1716.1 2929.43 1658.67 3000 1658.67C3070.57 1658.67 3128 1716.1 3128 1786.67V1914.67H2872V1786.67Z" fill="black"/>
</svg>
