<svg width="6000" height="4000" viewBox="0 0 6000 4000" fill="none" xmlns="http://www.w3.org/2000/svg">
<rect width="6000" height="4000" fill="#1B1B1B"/>
<path d="M3341.33 2000C3341.33 1952.94 3303.06 1914.67 3256 1914.67H3213.33V1786.67C3213.33 1669.03 3117.63 1573.33 3000 1573.33C2882.37 1573.33 2786.67 1669.03 2786.67 1786.67V1914.67H2744C2696.94 1914.67 2658.67 1952.94 2658.67 2000V2341.33C2658.67 2388.39 2696.94 2426.67 2744 2426.67H3256C3303.06 2426.67 3341.33 2388.39 3341.33 2341.33V2000ZM2872 1786.67C2872 1716.1 2929.43 1658.67 3000 1658.67C3070.57 1658.67 3128 1716.1 3128 1786.67V1914.67H2872V1786.67Z" fill="#FFA31A"/>
<path d="M459 2037.8C486.6 2031.2 516 2024 545.4 2016.2L542.4 1968.8L520.2 1971.8L540 1931C525.6 1925.6 503.4 1920.2 481.2 1915.4H555.6V2023.4H640.8V1915.4H709.8C690 1922 669 1928.6 652.8 1931.6L674.4 1964C668.4 1963.4 663.6 1962.8 658.2 1962.2L642.6 2009.6C679.8 2015.6 729.6 2027.6 763.8 2037.8H459ZM439.2 1915.4L420.6 1949.6C448.8 1955.6 485.4 1965.8 509.4 1973.6C473.4 1979 439.8 1983.8 412.2 1986.8V1915.4H439.2ZM784.8 1987.4C761.4 1980.8 729.6 1973.6 699 1968.2C725.4 1962.8 756 1955 781.2 1945.4L759 1915.4H784.8V1987.4ZM871.8 1991.6V1852.4H640.8V1833.8H840V1772.6H356.4V1833.8H555.6V1852.4H329.4V1991.6H399.6L415.2 2037.8H330V2104.4H552C550.8 2111.6 549 2118.2 547.8 2125.4H373.2V2315.6H455.4V2192.6H501V2313.2H579.6V2192.6H627.6V2313.2H706.2V2192.6H756V2239.4C756 2244.8 753.6 2246.6 747.6 2246.6C742.2 2246.6 723 2246.6 709.2 2246C718.8 2265.2 730.2 2294.6 733.8 2316.2C765.6 2316.2 791.4 2315.6 813 2304.2C834.6 2292.8 840 2274.2 840 2240.6V2125.4H631.8C634.8 2118.8 637.2 2111.6 640.2 2104.4H870.6V2037.8H783.6L796.8 1991.6H871.8ZM1728 2159.6H1853.4C1842.6 2171 1830 2180.6 1815.6 2189C1785 2181.8 1753.2 2175.2 1721.4 2169.2L1728 2159.6ZM1641 1933.4H1687.8V1975.4H1641V1933.4ZM1770 1841.6H1821.6V1865.6H1770V1841.6ZM1960.2 1933.4V1975.4H1903.8V1933.4H1960.2ZM1770 1975.4V1933.4H1821.6V1975.4H1770ZM2077.2 2159.6V2088.2H1994.4L1998.6 2075.6L1913.4 2055.2C1909.8 2067.2 1905.6 2078 1901.4 2088.2H1773C1779 2077.4 1785 2066 1789.8 2055.2L1732.8 2042.6H2047.2V1865.6H1903.8V1841.6H2062.8V1766.6H1533V1841.6H1687.8V1865.6H1559.4V2042.6H1699.8C1692.6 2057.6 1684.2 2072.6 1675.2 2088.2H1523.4V2159.6H1628.4C1614.6 2178.2 1600.8 2195.6 1588.2 2210.6C1622.4 2217.2 1656.6 2223.8 1689.6 2231C1642.8 2239.4 1587.6 2243 1523.4 2244.8C1536.6 2264 1549.8 2294.6 1555.2 2319.8C1674.6 2312 1765.8 2298.2 1836 2267C1899 2283.8 1953.6 2300.6 1994.4 2315.6L2071.8 2255C2029.8 2242.4 1976.4 2227.4 1917 2213C1933.2 2197.4 1947.6 2180 1960.2 2159.6H2077.2ZM4101 1815.2C4075.8 1793.6 4024.2 1768.4 3986.4 1754.6L3939 1818.8C3977.4 1835.6 4027.2 1864.4 4050 1886L4101 1815.2ZM4077.6 1977.8C4051.2 1957.4 3999 1932.8 3960.6 1919.6L3915.6 1985.6C3954.6 2001.8 4005.6 2029.4 4029 2050.4L4077.6 1977.8ZM4038 2065.4C4001.4 2135.6 3955.8 2208.2 3924 2252.6L3997.8 2311.4C4034.4 2251.4 4070.4 2186.6 4102.2 2123.6L4038 2065.4ZM4143.6 2095.4C4143.6 2145.2 4135.8 2210 4069.2 2258.6C4088.4 2271.2 4117.8 2298.2 4130.4 2315.6C4211.4 2253.8 4221.6 2165.6 4221.6 2098.4V2042H4143.6V2095.4ZM4242.6 2291.6H4318.2V2048.6H4242.6V2291.6ZM4218.6 1949.6C4233.6 1932.2 4248.6 1913.6 4263.6 1894.4H4363.8L4327.2 1916L4347.6 1943L4218.6 1949.6ZM4429.2 2237.6C4422 2237.6 4421.4 2230.4 4421.4 2210.6V2046.2L4490.4 2002.4C4471.2 1974.2 4435.2 1930.4 4405.8 1894.4H4474.2V1817H4316.4C4324.8 1803.2 4332.6 1789.4 4340.4 1775.6L4255.2 1743.2C4243.8 1768.4 4230.6 1793.6 4217.4 1817H4101V1894.4H4167C4157.4 1907.6 4149.6 1917.2 4144.2 1922.6C4126.2 1943.6 4113.6 1955.6 4096.8 1959.8C4106.4 1982 4120.2 2022.8 4124.4 2039C4149 2029.4 4183.2 2026.4 4396.8 2011.4C4404.6 2022.8 4411.2 2033.6 4416.6 2042.6H4341.6V2209.4C4341.6 2275.4 4354.2 2304.2 4420.8 2304.2H4446C4458.6 2304.2 4472.4 2303.6 4482 2299.4C4479 2281.4 4477.2 2253.8 4476 2233.4C4467.6 2236.4 4454.4 2237.6 4445.4 2237.6H4429.2ZM5508 1821.2H5286V1808H5508V1821.2ZM5508 1874H5286V1860.8H5508V1874ZM5596.2 1766H5202V1916H5596.2V1766ZM5272.8 2116.4V2102.6H5357.4V2116.4H5272.8ZM5272.8 2048H5357.4V2061.8H5272.8V2048ZM5523.6 2061.8H5442V2048H5523.6V2061.8ZM5523.6 2116.4H5442V2102.6H5523.6V2116.4ZM5442 2226.8H5619.6V2172.8H5442V2160.2H5609.4V2004.2H5191.2V2160.2H5357.4V2172.8H5181.6V2226.8H5357.4V2241.2H5125.2V2303.6H5676.6V2241.2H5442V2226.8ZM5125.2 1930.4V1991H5676.6V1930.4H5125.2Z" fill="#FFA31A"/>
</svg>
